Coordinates
version=1
nRows=10
nColumns=63
inDegrees=yes

Units are S.I. units (second, meters, Newtons, ...)
If the header above contains a line with 'inDegrees', this indicates whether rotational values are in degrees (yes) or radians (no).

endheader
time	pelvis_tilt	pelvis_list	pelvis_rotation	pelvis_tx	pelvis_ty	pelvis_tz	hip_flexion_r	hip_adduction_r	hip_rotation_r	knee_angle_r	knee_angle_r_beta	ankle_angle_r	subtalar_angle_r	mtp_angle_r	hip_flexion_l	hip_adduction_l	hip_rotation_l	knee_angle_l	knee_angle_l_beta	ankle_angle_l	subtalar_angle_l	mtp_angle_l	L5_S1_Flex_Ext	L5_S1_Lat_Bending	L5_S1_axial_rotation	L4_L5_Flex_Ext	L4_L5_Lat_Bending	L4_L5_axial_rotation	L3_L4_Flex_Ext	L3_L4_Lat_Bending	L3_L4_axial_rotation	L2_L3_Flex_Ext	L2_L3_Lat_Bending	L2_L3_axial_rotation	L1_L2_Flex_Ext	L1_L2_Lat_Bending	L1_L2_axial_rotation	L1_T12_Flex_Ext	L1_T12_Lat_Bending	L1_T12_axial_rotation	Abs_r3	Abs_r2	Abs_r1	Abs_t1	Abs_t2	neck_flexion	neck_bending	neck_rotation	arm_flex_r	arm_add_r	arm_rot_r	elbow_flex_r	pro_sup_r	wrist_flex_r	wrist_dev_r	arm_flex_l	arm_add_l	arm_rot_l	elbow_flex_l	pro_sup_l	wrist_flex_l	wrist_dev_l
     15.20000000	      6.49852974	     -0.14495754	    173.64369538	     -0.88828060	      0.88164923	      0.68480704	      2.39825770	      0.14694409	    -15.63190669	     17.22125043	      0.30056752	     26.77807245	     15.77852836	      0.00000000	     32.71795563	     -9.35811689	    -16.70078604	     25.51885043	      0.44538796	      8.79957882	      2.61194152	      0.00000000	      0.00210668	     -0.04076447	      1.66109120	      0.00391232	     -0.05421674	      1.76490940	      0.00346107	     -0.09911473	      1.76490940	      0.00240773	     -0.09911473	      1.45345480	      0.00195627	     -0.08312690	      1.34963660	      0.00120376	     -0.06314416	      1.24581840	      0.01504783	     -0.46113581	      9.23849094	      0.00000000	      0.00000000	     -0.00000000	      0.00000000	      0.00000000	      9.80985610	    -18.96905925	     19.33352695	     31.74850360	     41.18819039	      0.00000000	      5.00000014	    -15.43694168	    -14.54827716	     11.13210566	     29.81637675	     45.63097345	      0.00000000	      5.00000014
     15.23333333	      6.68834665	      0.37012200	    172.94097556	     -0.92442473	      0.87511499	      0.68821041	     -0.23914314	      0.38771226	    -14.67741371	     16.43073594	      0.28677044	     28.45334967	     15.36892146	      0.00000000	     31.71142137	     -9.17580332	    -20.74229663	     15.78303886	      0.27546599	      4.89041025	     10.10568430	      0.00000000	      0.00588758	      0.03337388	      1.90568122	      0.01093382	      0.04438726	      2.02478630	      0.00967270	      0.08114524	      2.02478630	      0.00672891	      0.08114524	      1.66747107	      0.00546720	      0.06805601	      1.54836600	      0.00336416	      0.05169613	      1.42926092	      0.04205438	      0.37753197	     10.59882727	      0.00000000	      0.00000000	     -0.00000000	      0.00000000	      0.00000000	     11.96683790	    -20.41800858	     19.06697257	     32.84435366	     40.78484333	      0.00000000	      5.00000014	    -17.33986750	    -14.90661835	     11.39182249	     30.63642112	     44.86568513	      0.00000000	      5.00000014
     15.26666667	      6.82228983	      0.81269917	    172.80622715	     -0.96190024	      0.86855412	      0.69269547	     -2.70785913	      0.38482997	    -13.65045729	     16.23268487	      0.28331380	     29.70533267	     13.90450957	      0.00000000	     31.75686968	     -8.49948873	    -22.10170752	     10.42156539	      0.18189063	      1.70308972	     12.47764713	      0.00000000	      0.00879431	      0.09716075	      2.01899688	      0.01633192	      0.12922380	      2.14518419	      0.01444817	      0.23623665	      2.14518419	      0.01005102	      0.23623665	      1.76662227	      0.00816640	      0.19813021	      1.64043497	      0.00502507	      0.15050201	      1.51424766	      0.06281689	      1.09910187	     11.22905497	      0.00000000	      0.00000000	     -0.00000000	      0.00000000	      0.00000000	     13.63048368	    -21.44370293	     18.16646192	     33.87852322	     40.47957149	      0.00000000	      5.00000014	    -19.32115779	    -14.66644496	      9.61471002	     31.43043818	     43.86613656	      0.00000000	      5.00000014
     15.30000000	      6.90948233	      0.86093367	    173.20415671	     -1.00021318	      0.86312434	      0.69766135	     -4.51969631	     -0.09512184	    -11.99509268	     17.48236570	      0.30512484	     30.18885119	     10.43759299	      0.00000000	     32.16694637	     -7.54588629	    -23.71945144	      8.44209748	      0.14734240	     -0.13544521	     13.18369093	      0.00000000	      0.00875471	      0.10169178	      2.02210066	      0.01625837	      0.13525006	      2.14848195	      0.01438311	      0.24725339	      2.14848195	      0.01000576	      0.24725339	      1.76933808	      0.00812962	      0.20736987	      1.64295678	      0.00500244	      0.15752056	      1.51657549	      0.06253401	      1.15035772	     11.24631723	      0.00000000	      0.00000000	     -0.00000000	      0.00000000	      0.00000000	     14.72832474	    -21.80893029	     16.83126667	     34.61261779	     40.23472552	      0.00000000	      5.00000014	    -21.00670770	    -14.16217908	      6.87227746	     31.83851343	     42.94688775	      0.00000000	      5.00000014
     15.33333333	      6.94769390	      0.55264076	    174.23578627	     -1.03945464	      0.85935089	      0.70299803	     -5.45007888	     -0.55167689	     -8.13085455	     20.58602310	      0.35929388	     28.85421326	      2.39717604	      0.00000000	     32.53862265	     -6.35137501	    -26.24169579	      8.92626968	      0.15579280	     -0.82559751	     13.73167064	      0.00000000	      0.00877108	      0.04784526	      1.89901909	      0.01628877	      0.06363420	      2.01770779	      0.01441001	      0.11633096	      2.01770779	      0.01002447	      0.11633096	      1.66164171	      0.00814482	      0.09756605	      1.54295301	      0.00501180	      0.07411231	      1.42426432	      0.06265095	      0.54123514	     10.56177450	      0.00000000	      0.00000000	     -0.00000000	      0.00000000	      0.00000000	     15.14802642	    -21.69097438	     15.82670719	     35.17345861	     40.02452143	      0.00000000	      5.00000014	    -22.01944827	    -13.82349215	      4.93482587	     31.48750342	     41.92652005	      0.00000000	      5.00000014
     15.36666667	      6.87686991	     -0.17398954	    175.25684720	     -1.07990763	      0.85751485	      0.70815825	     -5.27124615	     -1.53822921	     -5.31478262	     26.13429933	      0.45612957	     25.71153044	     -5.02249971	      0.00000000	     32.38581464	     -5.00779372	    -28.07084399	     10.81997943	      0.18884427	     -0.61839248	     12.56823513	      0.00000000	      0.00846469	     -0.06735604	      1.76276618	      0.01571978	     -0.08958353	      1.87293907	      0.01390664	     -0.16376948	      1.87293907	      0.00967430	     -0.16376948	      1.54242041	      0.00786031	     -0.13735244	      1.43224752	      0.00483673	     -0.10433451	      1.32207464	      0.06046245	     -0.76194500	      9.80397667	      0.00000000	      0.00000000	     -0.00000000	      0.00000000	      0.00000000	     14.88889358	    -21.17604375	     15.58937315	     35.43105820	     39.91925030	      0.00000000	      5.00000014	    -22.26048136	    -14.03719399	      4.97702549	     30.36665342	     41.42932377	      0.00000000	      5.00000014
     15.40000000	      6.63202908	     -1.07109458	    176.18412922	     -1.12167480	      0.85779292	      0.71350993	     -4.19767970	     -2.95615950	     -4.14649244	     33.35280490	      0.58211626	     20.34933666	    -10.43837433	      0.00000000	     31.68328670	     -3.58191864	    -27.99929865	     13.62172135	      0.23774389	      0.39907640	      9.17108644	      0.00000000	      0.00477434	     -0.20594421	      1.61990250	      0.00886642	     -0.27390580	      1.72114641	      0.00784376	     -0.50073275	      1.72114641	      0.00545659	     -0.50073275	      1.41741469	      0.00443345	     -0.41996143	      1.31617078	      0.00272806	     -0.31900758	      1.21492687	      0.03410261	     -2.32968206	      9.00941173	      0.00000000	      0.00000000	     -0.00000000	      0.00000000	      0.00000000	     13.94745592	    -20.50849113	     16.09820880	     35.49446166	     39.90447972	      0.00000000	      5.00000014	    -21.97335373	    -14.30669067	      5.64942269	     28.95758644	     41.12257045	      0.00000000	      5.00000014
     15.43333333	      6.26491566	     -1.96256048	    177.13335709	     -1.16400266	      0.85994758	      0.71918200	     -2.14285769	     -4.80514325	     -4.52914040	     41.57961296	      0.72570115	     13.29211292	    -13.64369008	      0.00000000	     30.62868231	     -1.56115326	    -23.10430251	     16.52417341	      0.28840123	      1.11857076	      0.46273231	      0.00000000	      0.00199106	     -0.34649747	      1.45368978	      0.00369759	     -0.46084164	      1.54454539	      0.00327111	     -0.84247395	      1.54454539	      0.00227558	     -0.84247395	      1.27197856	      0.00184889	     -0.70657764	      1.18112295	      0.00113769	     -0.53672458	      1.09026734	      0.01422191	     -3.91964869	      8.08498647	      0.00000000	      0.00000000	     -0.00000000	      0.00000000	      0.00000000	     12.39454055	    -19.77348860	     17.37196728	     35.45652687	     39.88313304	      0.00000000	      5.00000014	    -21.28376735	    -14.25652971	      5.37546914	     27.55766521	     40.17742667	      0.00000000	      5.00000014
     15.46666667	      5.81909584	     -2.78136616	    177.79229030	     -1.20589732	      0.86343998	      0.72463406	      1.00795979	     -7.05367166	     -5.33006545	     50.16885143	      0.87561164	      6.04786638	    -15.06902928	      0.00000000	     29.03933895	      0.63269953	    -17.42887755	     19.09733800	      0.33331143	      1.22361037	     -8.58310650	      0.00000000	      0.00060155	     -0.47879080	      1.32662065	      0.00111714	     -0.63679177	      1.40953444	      0.00098829	     -1.16413196	      1.40953444	      0.00068751	     -1.16413196	      1.16079307	      0.00055860	     -0.97635020	      1.07787928	      0.00034373	     -0.74164695	      0.99496549	      0.00429682	     -5.41617731	      7.37826607	      0.00000000	      0.00000000	     -0.00000000	      0.00000000	      0.00000000	     10.31247691	    -18.98540026	     18.81104498	     35.42204017	     39.89490553	      0.00000000	      5.00000014	    -20.45956549	    -13.36694183	      1.36346675	     26.90824092	     38.57140724	      0.00000000	      5.00000014
     15.50000000	      5.32376473	     -3.33014092	    178.50325156	     -1.24674288	      0.86769146	      0.72974503	      5.03656743	     -9.15890358	     -6.02244174	     58.35121480	      1.01842082	      0.11709996	    -16.01671850	      0.00000000	     26.68671131	      2.61689160	    -12.76210464	     20.77384231	      0.36257195	      1.46200529	    -14.60797388	      0.00000000	     -0.00012157	     -0.57931242	      1.17309872	     -0.00022576	     -0.77048552	      1.24641739	     -0.00019972	     -1.40854022	      1.24641739	     -0.00013894	     -1.40854022	      1.02646138	     -0.00011289	     -1.18133389	      0.95314271	     -0.00006946	     -0.89735494	      0.87982404	     -0.00086834	     -6.55329796	      6.52442314	      0.00000000	      0.00000000	     -0.00000000	      0.00000000	      0.00000000	      7.74202940	    -18.07391463	     19.62029082	     35.47169768	     39.86452113	      0.00000000	      5.00000014	    -19.46870846	    -11.89338237	     -5.24457001	     27.40149816	     36.72466695	      0.00000000	      5.00000014
